PathFileType	4	(X/Y/Z)	C:/Users/opensim2020/Desktop/walking_exp_matlab/subject03_walking08_straight_03.trc																																																																																																																																																							
DataRate	CameraRate	NumFrames	NumMarkers	Units	OrigDataRate	OrigDataStartFrame	OrigNumFrames																																																																																																																																																			
100	100	4	51	mm	100	2506	299																																																																																																																																																			
Frame#	Time	LFHD			RFHD			LBHD			RBHD			C7			T10			CLAV			STRN			RBAK			LSHO			LUPA			LELB			LFRM			LWRA			LWRB			LFIN			RSHO			RUPA			RELB			RFRM			RWRA			RWRB			RFIN			LASI			RASI			LPSI			RPSI			LTHI			LKNE			LTIB			LANK			LHEE			LTOE			RTHI			RKNE			RTIB			RANK			RHEE			RTOE			*39			*40			*41			*42			*43			*44			*45			*46			*47			*48			*49			*50		
		X1	Y1	Z1	X2	Y2	Z2	X3	Y3	Z3	X4	Y4	Z4	X5	Y5	Z5	X6	Y6	Z6	X7	Y7	Z7	X8	Y8	Z8	X9	Y9	Z9	X10	Y10	Z10	X11	Y11	Z11	X12	Y12	Z12	X13	Y13	Z13	X14	Y14	Z14	X15	Y15	Z15	X16	Y16	Z16	X17	Y17	Z17	X18	Y18	Z18	X19	Y19	Z19	X20	Y20	Z20	X21	Y21	Z21	X22	Y22	Z22	X23	Y23	Z23	X24	Y24	Z24	X25	Y25	Z25	X26	Y26	Z26	X27	Y27	Z27	X28	Y28	Z28	X29	Y29	Z29	X30	Y30	Z30	X31	Y31	Z31	X32	Y32	Z32	X33	Y33	Z33	X34	Y34	Z34	X35	Y35	Z35	X36	Y36	Z36	X37	Y37	Z37	X38	Y38	Z38	X39	Y39	Z39	X40	Y40	Z40	X41	Y41	Z41	X42	Y42	Z42	X43	Y43	Z43	X44	Y44	Z44	X45	Y45	Z45	X46	Y46	Z46	X47	Y47	Z47	X48	Y48	Z48	X49	Y49	Z49	X50	Y50	Z50	X51	Y51	Z51
																																																																																																																																																										
75	0.74	-439.58487	1612.20947	-1087.94983	-468.50385	1619.23218	-958.12482	-563.18262	1562.49756	-1110.33545	-586.96936	1568.89587	-981.35266	-604.67694	1409.64368	-1049.646	-644.61084	1097.97571	-1040.81055	-485.23019	1330.27722	-1032.75488	-444.68195	1164.28528	-1034.24792	-670.75812	1236.396	-956.86163	-510.22372	1365.42822	-1191.66272	-475.82629	1179.06445	-1269.20654	-431.00812	1066.25134	-1285.10986	-352.37192	963.81042	-1276.4071	-284.2821	870.31958	-1237.43188	-301.76392	862.1842	-1289.36841	-246.86958	800.4187	-1275.03259	-546.80292	1356.4989	-878.7597	-550.75269	1131.30212	-811.73193	-533.17566	1019.30396	-802.53516	-510.98746	884.12616	-805.16473	-473.97867	792.1748	-842.20929	-508.05145	784.77069	-801.18488	-479.49722	718.26563	-806.45349	-483.61743	929.91925	-1153.0542	-486.48254	928.90668	-914.96735	-645.50867	959.95697	-1102.68542	-645.62219	960.86182	-953.72888	-583.09668	635.79718	-1182.77283	-615.37317	461.14902	-1142.98889	-707.97925	285.21188	-1138.3147	-764.14075	80.05919	-1090.39063	-807.81299	53.37657	-1052.85583	-616.39685	27.70718	-1062.11646	-495.96402	635.32721	-867.09668	-424.60556	469.80878	-904.11499	-407.70712	286.4816	-897.10425	-349.47928	75.70172	-935.30365	-376.6665	36.39632	-993.03015	-202.61501	63.8346	-940.12329	NaN	NaN	NaN	NaN	NaN	NaN	NaN	NaN	NaN	NaN	NaN	NaN	NaN	NaN	NaN	NaN	NaN	NaN	NaN	NaN	NaN	NaN	NaN	NaN	NaN	NaN	NaN	NaN	NaN	NaN	NaN	NaN	NaN	NaN	NaN	NaN
76	0.75	-432.22342	1611.54236	-1087.54382	-461.09818	1618.4447	-957.66937	-555.72589	1561.77637	-1109.87732	-579.5957	1568.07861	-980.90533	-597.13239	1408.76709	-1049.01379	-636.99506	1097.12659	-1039.8042	-477.66101	1329.51794	-1032.48779	-436.95328	1163.64282	-1034.03394	-662.85553	1235.52625	-955.88702	-503.26569	1364.53552	-1191.34668	-469.32532	1177.98438	-1268.70813	-424.71783	1065.04211	-1284.62256	-345.14948	963.39771	-1275.29736	-276.1138	870.81799	-1235.81323	-293.67133	862.08807	-1287.55493	-238.17477	800.98083	-1272.85559	-538.72614	1355.70947	-878.24731	-542.47302	1130.5675	-811.0896	-525.03082	1018.58191	-801.8559	-503.10263	883.38977	-804.5188	-466.5528	791.23071	-841.59265	-500.30759	784.07672	-800.32379	-471.87811	717.79205	-805.25269	-476.12271	929.30365	-1152.61499	-478.14694	928.11139	-914.49994	-637.89148	959.10217	-1101.49719	-637.43726	959.98547	-952.61786	-576.67523	635.58112	-1182.58203	-609.85498	460.99393	-1143.31433	-704.58917	285.87198	-1138.47266	-763.50934	81.32791	-1090.82898	-807.39423	55.25173	-1053.11328	-616.25293	27.61274	-1062.22083	-487.345	634.28271	-867.83533	-415.86407	469.11368	-904.57928	-398.79086	285.71173	-898.02411	-340.46841	74.97256	-936.84412	-367.75537	35.79185	-994.61761	-193.67934	63.33432	-941.57959	NaN	NaN	NaN	NaN	NaN	NaN	NaN	NaN	NaN	NaN	NaN	NaN	NaN	NaN	NaN	NaN	NaN	NaN	NaN	NaN	NaN	NaN	NaN	NaN	NaN	NaN	NaN	NaN	NaN	NaN	NaN	NaN	NaN	NaN	NaN	NaN
77	0.76	-424.77921	1610.89001	-1086.9635	-453.60455	1617.69519	-957.13831	-548.29431	1561.08191	-1109.40332	-572.20532	1567.31958	-980.38782	-589.59998	1407.93945	-1048.29248	-629.10681	1096.2439	-1038.71387	-469.99142	1328.79956	-1032.13416	-429.19641	1162.92761	-1033.7301	-655.03369	1234.74243	-954.78101	-496.24908	1363.68054	-1190.95898	-462.88748	1176.76257	-1267.96448	-418.29657	1063.90442	-1283.88586	-338.20337	962.83148	-1274.14575	-268.21964	871.18243	-1234.15503	-286.03427	861.80664	-1285.81128	-229.94086	801.30133	-1270.74255	-530.56403	1355.00525	-877.61133	-534.14636	1129.90112	-810.39484	-516.72571	1017.89575	-801.15308	-495.22113	882.80389	-803.76105	-458.90979	790.38812	-841.05048	-492.35248	783.48834	-799.39624	-463.99783	717.31726	-804.06396	-468.43036	928.72888	-1152.12744	-469.67621	927.39728	-914.05231	-630.10242	958.25983	-1100.33923	-629.1554	959.17297	-951.48047	-570.14368	635.32996	-1182.40979	-604.17389	460.78049	-1143.49854	-701.08661	286.53748	-1138.61951	-762.62469	82.76288	-1090.99451	-806.89917	57.28186	-1053.2572	-616.11432	27.54608	-1062.27808	-478.88345	633.60284	-868.18536	-406.85397	468.52435	-905.0506	-390.58536	284.78589	-898.97815	-333.14206	73.84134	-938.44452	-360.8905	34.92693	-996.11884	-186.42834	61.76521	-943.35822	NaN	NaN	NaN	NaN	NaN	NaN	NaN	NaN	NaN	NaN	NaN	NaN	NaN	NaN	NaN	NaN	NaN	NaN	NaN	NaN	NaN	NaN	NaN	NaN	NaN	NaN	NaN	NaN	NaN	NaN	NaN	NaN	NaN	NaN	NaN	NaN
78	0.77	-417.34949	1610.32312	-1086.45496	-445.94461	1617.05896	-956.81134	-540.79352	1560.36572	-1108.8075	-564.62219	1566.47119	-979.83075	-582.01666	1407.09656	-1047.53406	-621.07764	1095.38452	-1037.54993	-462.24924	1328.13306	-1031.73352	-421.19522	1162.31616	-1033.41345	-646.98383	1233.94434	-953.60693	-489.09387	1362.89551	-1190.64478	-456.44186	1175.78748	-1267.42334	-412.15344	1062.62988	-1282.78333	-331.42426	962.15277	-1272.96411	-260.82089	871.22516	-1232.58472	-278.66324	861.35956	-1284.02466	-222.10965	801.34796	-1268.63831	-522.25061	1354.41711	-877.05566	-525.73889	1129.29041	-809.58984	-508.2702	1017.26544	-800.37671	-486.97049	882.14337	-802.97119	-451.40488	789.55029	-840.47803	-484.28931	782.93372	-798.39709	-455.88821	716.94531	-802.95154	-460.61719	928.16162	-1151.74133	-460.85574	926.68616	-913.52448	-622.11444	957.51752	-1099.16931	-620.60669	958.34082	-950.35602	-563.49316	635.0791	-1182.43701	-598.34698	460.50616	-1143.63562	-697.39789	287.2366	-1138.71362	-761.70544	84.29177	-1091.10852	-806.26593	59.34379	-1053.34717	-615.92865	27.51112	-1062.33325	-469.47867	632.92719	-868.40155	-397.84705	467.91174	-905.5545	-382.92178	283.67102	-899.97784	-327.4256	72.51135	-940.08008	-355.45496	33.86194	-997.90533	-180.74606	59.34442	-945.39447	NaN	NaN	NaN	NaN	NaN	NaN	NaN	NaN	NaN	NaN	NaN	NaN	NaN	NaN	NaN	NaN	NaN	NaN	NaN	NaN	NaN	NaN	NaN	NaN	NaN	NaN	NaN	NaN	NaN	NaN	NaN	NaN	NaN	NaN	NaN	NaN
